<svg xmlns="http://www.w3.org/2000/svg" viewBox="0 0 256 256" role="img"><defs><linearGradient id="wood" x2=".8" y2="1"><stop stop-color="#d3bd94"/><stop offset=".45" stop-color="#bca079"/><stop offset="1" stop-color="#917959"/></linearGradient><linearGradient id="stone" x2=".3" y2="1"><stop stop-color="#cec5b0"/><stop offset="1" stop-color="#9a947f"/></linearGradient><linearGradient id="moss"><stop stop-color="#889071"/><stop offset="1" stop-color="#636d53"/></linearGradient><filter id="shadow" x="-20%" y="-20%" width="140%" height="150%"><feDropShadow dx="0" dy="5" stdDeviation="3" flood-color="#544631" flood-opacity=".22"/></filter></defs><g filter="url(#shadow)"><path d="M128 30 C106 74 51 113 48 156 C39 222 213 237 210 161 C209 112 151 72 128 30 Z" fill="url(#stone)" stroke="#685442" stroke-width="2" stroke-linecap="round" stroke-linejoin="round"/><path d="M126 71 Q89 103 142 115 Q180 126 123 146 Q85 164 171 185 Q142 204 81 189 Q64 174 89 160 Q112 152 109 143 Q63 124 117 104 Q153 91 126 71 Z" fill="#849a98" stroke="#685442" stroke-width="2" stroke-linecap="round" stroke-linejoin="round"/><path d="M66 131 l12 -34 l18 34 Z" fill="#817e67" stroke="#685442" stroke-width="2" stroke-linecap="round" stroke-linejoin="round"/><path d="M92 96 l20 -22 l16 7 l14 -13 l23 28" fill="none" stroke="#817e6b" stroke-width="3" stroke-linecap="round" stroke-linejoin="round"/><path d="M68 183 Q126 220 191 178" fill="none" stroke="#c7a568" stroke-width="4" stroke-linecap="round" stroke-linejoin="round"/><path d="M116 169 h35" fill="none" stroke="#c9d4cb" stroke-width="1.5" stroke-linecap="round" stroke-linejoin="round"/><path d="M112 175 h38" fill="none" stroke="#c9d4cb" stroke-width="1.5" stroke-linecap="round" stroke-linejoin="round"/><path d="M108 181 h41" fill="none" stroke="#c9d4cb" stroke-width="1.5" stroke-linecap="round" stroke-linejoin="round"/><path d="M104 187 h44" fill="none" stroke="#c9d4cb" stroke-width="1.5" stroke-linecap="round" stroke-linejoin="round"/></g></svg>