<svg xmlns="http://www.w3.org/2000/svg" viewBox="0 0 256 256" role="img"><defs><linearGradient id="wood" x2=".8" y2="1"><stop stop-color="#d3bd94"/><stop offset=".45" stop-color="#bca079"/><stop offset="1" stop-color="#917959"/></linearGradient><linearGradient id="stone" x2=".3" y2="1"><stop stop-color="#cec5b0"/><stop offset="1" stop-color="#9a947f"/></linearGradient><linearGradient id="moss"><stop stop-color="#889071"/><stop offset="1" stop-color="#636d53"/></linearGradient><filter id="shadow" x="-20%" y="-20%" width="140%" height="150%"><feDropShadow dx="0" dy="5" stdDeviation="3" flood-color="#544631" flood-opacity=".22"/></filter></defs><g filter="url(#shadow)"><path d="M204 107 C231 174 186 219 121 219 C46 219 28 157 53 97 C75 44 151 24 177 49 C198 70 130 106 143 75 C114 57 91 91 80 121 C56 180 120 196 160 172 C190 150 178 125 204 107 Z" fill="url(#wood)" stroke="#685442" stroke-width="2" stroke-linecap="round" stroke-linejoin="round"/><path d="M185 112 Q187 156 154 173 M66 165 Q52 99 111 65 Q155 39 165 58" fill="none" stroke="#d2bd97" stroke-width="3" stroke-linecap="round" stroke-linejoin="round"/><path d="M85 143 Q85 195 134 199 Q179 195 183 143 Z" fill="url(#wood)" stroke="#685442" stroke-width="2" stroke-linecap="round" stroke-linejoin="round"/><ellipse cx="134" cy="143" rx="49" ry="12" fill="#9c8057" stroke="#695845" stroke-width="2"/><path d="M93 161 Q137 178 176 161 M102 179 Q135 191 166 180" fill="none" stroke="#d2b98e" stroke-width="2" stroke-linecap="round" stroke-linejoin="round"/><path d="M142 151 l-5 12 l5 8 l-6 12 l3 10" fill="none" stroke="#c7a568" stroke-width="4" stroke-linecap="round" stroke-linejoin="round"/></g></svg>